<svg width="1600" height="1000" viewBox="0 0 1600 1000" fill="none" xmlns="http://www.w3.org/2000/svg">
  <defs>
    <linearGradient id="sky" x1="800" y1="0" x2="800" y2="1000" gradientUnits="userSpaceOnUse">
      <stop offset="0" stop-color="#FCE3A9"/>
      <stop offset="0.38" stop-color="#F7B76A"/>
      <stop offset="0.7" stop-color="#D56B3D"/>
      <stop offset="1" stop-color="#4F2D23"/>
    </linearGradient>
    <linearGradient id="ground" x1="800" y1="610" x2="800" y2="1000" gradientUnits="userSpaceOnUse">
      <stop offset="0" stop-color="#7D3C30"/>
      <stop offset="1" stop-color="#1F2E2A"/>
    </linearGradient>
    <linearGradient id="glass" x1="0" y1="0" x2="1" y2="1">
      <stop offset="0" stop-color="#FDF7E8" stop-opacity="0.9"/>
      <stop offset="1" stop-color="#F0D8A2" stop-opacity="0.7"/>
    </linearGradient>
  </defs>

  <rect width="1600" height="1000" fill="url(#sky)"/>
  <circle cx="1250" cy="165" r="128" fill="#FFF8D9" fill-opacity="0.38"/>

  <path d="M0 730C204 660 277 650 426 670C586 691 636 726 772 728C906 730 1003 660 1154 642C1272 627 1403 644 1600 708V1000H0V730Z" fill="url(#ground)"/>

  <g opacity="0.32">
    <path d="M93 720L250 548L360 720H93Z" fill="#3E241F"/>
    <path d="M1190 720L1358 558L1502 720H1190Z" fill="#3E241F"/>
    <path d="M804 720L938 560L1032 720H804Z" fill="#392827"/>
  </g>

  <g opacity="0.75">
    <path d="M115 750H1485V1000H115V750Z" fill="#1F332D" opacity="0.22"/>
  </g>

  <g>
    <rect x="298" y="510" width="190" height="200" rx="8" fill="#EAD7A0" opacity="0.18"/>
    <path d="M334 670V530H440V670" stroke="#F4E7C4" stroke-width="10" stroke-linecap="round"/>
    <path d="M308 530H466" stroke="#F4E7C4" stroke-width="8" stroke-linecap="round"/>
    <path d="M348 530L382 480L416 530" stroke="#F4E7C4" stroke-width="8" stroke-linecap="round" stroke-linejoin="round"/>
    <path d="M370 530V480H394V530" stroke="#F4E7C4" stroke-width="6" stroke-linecap="round"/>
    <path d="M330 570H444" stroke="#F4E7C4" stroke-width="7" opacity="0.7"/>
    <path d="M330 610H444" stroke="#F4E7C4" stroke-width="7" opacity="0.7"/>
    <path d="M330 650H444" stroke="#F4E7C4" stroke-width="7" opacity="0.7"/>
  </g>

  <g>
    <rect x="1050" y="426" width="220" height="283" rx="12" fill="#F5EACC" opacity="0.14"/>
    <path d="M1088 690V490H1238V690" stroke="#F9F1D1" stroke-width="8" stroke-linecap="round"/>
    <path d="M1098 490H1228" stroke="#F9F1D1" stroke-width="8" stroke-linecap="round"/>
    <path d="M1120 490V436H1204V490" stroke="#F9F1D1" stroke-width="8" stroke-linecap="round"/>
    <path d="M1127 554H1203" stroke="#F9F1D1" stroke-width="6" opacity="0.8"/>
    <path d="M1127 599H1203" stroke="#F9F1D1" stroke-width="6" opacity="0.8"/>
    <path d="M1127 644H1203" stroke="#F9F1D1" stroke-width="6" opacity="0.8"/>
  </g>

  <g>
    <path d="M688 420C742 382 763 333 760 280C755 229 729 168 681 136C630 101 564 96 516 123C468 151 419 197 405 250C387 318 400 370 445 411C514 474 567 486 688 420Z" fill="#F6F0D8" fill-opacity="0.75"/>
    <path d="M583 287C645 257 694 251 722 279C749 306 756 356 741 398C729 431 686 470 629 468C563 466 497 419 488 363C480 311 512 302 583 287Z" fill="#F4D7A1" fill-opacity="0.56"/>
    <path d="M594 324C629 312 666 316 687 332C708 348 718 377 710 405C702 430 682 450 639 459C577 472 520 450 502 402C488 363 523 337 594 324Z" fill="#FFF8E8" fill-opacity="0.7"/>
    <path d="M591 343C610 333 642 332 660 342C678 352 689 370 686 390C682 409 665 425 640 432C603 443 556 433 535 402C545 377 560 353 591 343Z" fill="#F2CF7E" fill-opacity="0.7"/>
    <path d="M584 419H624V507H584V419Z" fill="#F1E4B8" fill-opacity="0.85"/>
    <path d="M520 445H690V488H520V445Z" fill="#F3E3B4" fill-opacity="0.7"/>
    <path d="M553 488H658V527H553V488Z" fill="#E7C67E" fill-opacity="0.7"/>
  </g>

  <g>
    <path d="M684 698L741 699V803H684V698Z" fill="#EAD5A5" fill-opacity="0.72"/>
    <path d="M687 701C705 676 740 674 757 700L771 802H679L687 701Z" fill="#F7EAC0" fill-opacity="0.74"/>
    <path d="M731 652H846C865 652 882 669 882 688V801H695V688C695 669 712 652 731 652Z" fill="#EFE4C4" fill-opacity="0.7"/>
    <path d="M741 624H846C869 624 888 644 888 667V687H699V667C699 644 718 624 741 624Z" fill="#F4EFD8" fill-opacity="0.82"/>
    <path d="M689 691H890" stroke="#E4C77E" stroke-width="7" opacity="0.7"/>
    <path d="M732 692V806" stroke="#E4C77E" stroke-width="6" opacity="0.7"/>
    <path d="M782 692V806" stroke="#E4C77E" stroke-width="6" opacity="0.7"/>
    <path d="M832 692V806" stroke="#E4C77E" stroke-width="6" opacity="0.7"/>
  </g>

  <g opacity="0.9">
    <path d="M575 585C575 526 616 480 673 480H683C740 480 781 526 781 585V645H575V585Z" fill="#FDF9EF" fill-opacity="0.74"/>
    <path d="M603 567C603 540 624 518 651 518H694C720 518 742 540 742 567V645H603V567Z" fill="#E8C77B" fill-opacity="0.7"/>
    <path d="M619 521H733" stroke="#F5E7BF" stroke-width="6"/>
    <path d="M625 545H728" stroke="#F5E7BF" stroke-width="6" opacity="0.75"/>
    <path d="M501 641H841" stroke="#F6EAD3" stroke-width="5" opacity="0.8"/>
  </g>

  <g opacity="0.7">
    <path d="M145 823C185 795 287 787 331 814C356 831 374 829 394 814C431 787 455 793 476 816C518 857 598 857 655 816C716 773 781 761 830 780C878 799 939 802 1005 787C1085 770 1138 729 1182 742C1237 759 1264 806 1326 826C1371 841 1428 839 1489 820V1000H145V823Z" fill="#1F2D32" fill-opacity="0.38"/>
  </g>

  <g>
    <path d="M202 743C255 722 287 683 300 638H402C412 687 459 717 519 743H202Z" fill="#F6D693" fill-opacity="0.64"/>
    <path d="M518 704C551 659 583 611 642 584C695 558 725 539 750 505C786 456 875 454 930 508C970 548 1016 562 1048 600C1085 643 1092 693 1087 738H518V704Z" fill="#F4E2B0" fill-opacity="0.18"/>
  </g>

  <g>
    <path d="M146 830H1454V1000H146V830Z" fill="#38261F" fill-opacity="0.12"/>
  </g>

  <g>
    <rect x="111" y="118" width="420" height="170" rx="28" fill="#0F2C2A" fill-opacity="0.36" stroke="#F7DCA1" stroke-opacity="0.55"/>
    <text x="150" y="168" fill="#FCECC9" font-family="Georgia, 'Times New Roman', serif" font-size="46" letter-spacing="7">GOLDEN </text>
    <text x="150" y="226" fill="#F6D389" font-family="Georgia, 'Times New Roman', serif" font-size="62" font-weight="700" letter-spacing="5">TRIANGLE</text>
    <text x="153" y="256" fill="#F5EBDA" font-family="Arial, sans-serif" font-size="24" letter-spacing="7">DELHI • AGRA • JAIPUR</text>
  </g>

  <g>
    <rect x="1168" y="165" width="300" height="112" rx="22" fill="#fff" fill-opacity="0.15" stroke="#F7E7BF" stroke-opacity="0.36"/>
    <text x="1218" y="220" fill="#FFF7E5" font-family="Arial, sans-serif" font-size="28" letter-spacing="4">4N / 5D</text>
    <text x="1218" y="252" fill="#F7D894" font-family="Arial, sans-serif" font-size="18" letter-spacing="4">FROM ₹16,500 / PERSON</text>
  </g>

  <g opacity="0.9">
    <path d="M1040 769C1040 754 1053 742 1069 742H1211C1228 742 1240 754 1240 769V807H1040V769Z" fill="#F6DDA0" fill-opacity="0.86"/>
    <text x="1060" y="790" fill="#1D2A28" font-family="Arial, sans-serif" font-size="30" font-weight="700" letter-spacing="2">TAJ MAHAL</text>
  </g>
</svg>
